<svg width="101" height="78" viewBox="0 0 101 78" fill="none" xmlns="http://www.w3.org/2000/svg">
<path d="M76.6588 41.1978C76.6588 47.5803 73.9505 53.8321 69.2371 58.3051V58.3313L50.774 71.8027L50.5396 71.9596L50.3052 71.8027L31.8421 58.3313V58.3051C27.1287 53.8321 24.4204 47.7111 24.4204 41.1978V13.9934H24.811C35.2275 13.7057 44.2898 10.4098 50.3313 5.25663L50.5917 5.04736L50.8521 5.25663C56.8676 10.3836 66.0861 13.7057 76.3724 13.9673H76.763V41.1978H76.6588Z" fill="black"/>
<path d="M58.6695 52.9568C82.0481 39.3986 97.345 22.0483 92.8362 14.2038C88.3274 6.35924 65.7203 10.9911 42.3418 24.5493C18.9633 38.1075 3.66632 55.4579 8.17511 63.3024C12.6839 71.1469 35.291 66.515 58.6695 52.9568Z" stroke="black" stroke-width="2" stroke-miterlimit="10"/>
<path d="M87.2866 25.6826C90.0357 25.6826 92.265 27.9111 92.2651 30.6602C92.2651 33.4093 90.0358 35.6387 87.2866 35.6387C84.5376 35.6385 82.3091 33.4092 82.3091 30.6602C82.3092 27.9112 84.5377 25.6828 87.2866 25.6826Z" fill="white" stroke="black" stroke-width="2"/>
<path d="M12.7939 43.156C15.543 43.156 17.7723 45.3845 17.7725 48.1335C17.7725 50.8827 15.5431 53.1121 12.7939 53.1121C10.0449 53.1119 7.81641 50.8826 7.81641 48.1335C7.81655 45.3846 10.045 43.1561 12.7939 43.156Z" fill="white" stroke="black" stroke-width="2"/>
<path d="M24.3423 41.1978V13.9934H24.7329C35.1493 13.7057 44.2116 10.4098 50.2532 5.25663L50.5136 5.04736L50.774 5.25663C56.7895 10.3836 66.008 13.7057 76.2942 13.9673H76.6849V33.1411" fill="black"/>
<path d="M55.4352 32.775C55.4352 30.0284 53.2217 27.8049 50.4874 27.8049C47.753 27.8049 45.5396 30.0284 45.5396 32.775C45.5396 34.9722 46.9718 36.8556 48.9509 37.4834V41.9041C48.9509 42.7673 49.628 43.4474 50.4874 43.4474C51.3467 43.4474 52.0238 42.7673 52.0238 41.9041V37.4834C54.0029 36.8295 55.4352 34.9722 55.4352 32.775Z" fill="white"/>
</svg>
