<svg width="73" height="74" viewBox="0 0 73 74" fill="none" xmlns="http://www.w3.org/2000/svg">
<path fill-rule="evenodd" clip-rule="evenodd" d="M30.8944 15.9463C30.6341 16.2104 30.4839 16.5659 30.4839 16.9418V20.9438L23.3647 27.5055C22.4335 28.3486 22.1832 29.7199 22.7439 30.8474L23.605 32.5843C24.2659 33.9149 25.8279 34.4939 27.1696 33.9149L29.0821 33.082C29.6228 32.8484 29.9632 32.2897 29.9132 31.6904C31.1247 32.117 32.1461 32.1374 32.9972 31.792C33.0172 32.0053 33.0072 32.2186 32.9972 32.4319C32.4264 33.4781 31.5753 34.3415 30.544 34.9307C30.4539 34.9916 30.3638 35.0525 30.2837 35.1236C28.5314 36.759 27.44 38.9936 27.2097 41.3908C27.2097 41.4111 27.2097 41.4213 27.2097 41.4416C27.1696 42.1933 27.1496 42.9347 27.1596 43.6864H26.709C25.1771 43.6864 23.9355 44.9459 23.9355 46.5V47.3532C22.7239 47.6884 21.8828 48.7956 21.8828 50.0755V52.2187C21.8828 52.9906 22.4936 53.6103 23.2546 53.6103H50.65C51.4109 53.6103 52.0217 52.9805 52.0217 52.2187V50.0755C52.0217 48.8058 51.1806 47.6884 49.9691 47.3532V46.5C49.9691 44.9459 48.7275 43.6864 47.1955 43.6864H45.8538C45.0427 43.1785 44.7924 42.1018 45.283 41.2791C45.5233 40.8829 45.9038 40.6087 46.3444 40.497C46.7649 40.3954 47.1154 40.0907 47.2856 39.6945C50.9904 30.888 46.9652 20.7 38.284 16.9316C36.2614 16.0581 34.0986 15.5807 31.9058 15.54C31.5353 15.54 31.1848 15.6822 30.9145 15.9463H30.8944Z" fill="black"/>
<path d="M63.656 42.2447C62.8946 45.8931 61.5304 49.0814 59.5555 52.1191L64.7188 58.8052L58.6434 64.8806L51.9573 59.5666C49.0703 61.5415 45.7313 62.9057 42.0829 63.6671L41.0201 72.0187H32.367L31.3042 63.6671C27.8145 62.9057 24.4675 61.5415 21.5884 59.5666L14.9023 64.7299L8.82694 58.6545L13.9902 51.9684C12.0153 49.0814 10.6511 45.7424 9.88974 42.094L1.53809 41.0312V32.3781L9.88974 31.3153C10.6511 27.6669 12.0153 24.4786 13.9902 21.4409L8.82694 14.7548L14.9023 8.67942L21.5884 13.9934C24.4754 12.0185 27.8145 10.6543 31.3042 9.89291L32.367 1.54126H41.0201L42.0829 9.89291C45.5726 10.6543 48.9196 12.0185 51.7987 13.9934L58.4848 8.83012L64.5601 14.9055L59.5476 21.5916C61.5225 24.4786 62.8866 27.8176 63.6481 31.466L71.9997 32.5288V41.1819L63.6481 42.2447H63.656Z" stroke="black" stroke-width="2" stroke-linecap="round" stroke-linejoin="round"/>
</svg>
