<svg width="93" height="69" viewBox="0 0 93 69" fill="none" xmlns="http://www.w3.org/2000/svg">
<path d="M54.6802 68.6514C53.7738 68.6514 52.9046 68.2897 52.2637 67.646C51.6228 67.0023 51.2627 66.1292 51.2627 65.2188V3.43257C51.2627 2.52219 51.6228 1.64911 52.2637 1.00538C52.9046 0.361645 53.7738 0 54.6802 0C55.5866 0 56.4559 0.361645 57.0968 1.00538C57.7377 1.64911 58.0978 2.52219 58.0978 3.43257V65.2188C58.0978 66.1292 57.7377 67.0023 57.0968 67.646C56.4559 68.2897 55.5866 68.6514 54.6802 68.6514Z" fill="white"/>
<path d="M88.856 41.6368C87.9496 41.6368 87.0804 41.2751 86.4394 40.6314C85.7985 39.9876 85.4385 39.1146 85.4385 38.2042V30.4809C85.4385 29.5705 85.7985 28.6974 86.4394 28.0537C87.0804 27.41 87.9496 27.0483 88.856 27.0483C89.7624 27.0483 90.6317 27.41 91.2726 28.0537C91.9135 28.6974 92.2736 29.5705 92.2736 30.4809V38.2042C92.2736 39.1146 91.9135 39.9876 91.2726 40.6314C90.6317 41.2751 89.7624 41.6368 88.856 41.6368Z" fill="white"/>
<path d="M20.5054 60.928C19.599 60.928 18.7298 60.5663 18.0889 59.9226C17.448 59.2788 17.0879 58.4058 17.0879 57.4954V11.1557C17.0879 10.2453 17.448 9.37225 18.0889 8.72852C18.7298 8.08479 19.599 7.72314 20.5054 7.72314C21.4118 7.72314 22.2811 8.08479 22.922 8.72852C23.5629 9.37225 23.923 10.2453 23.923 11.1557V57.4954C23.923 58.4058 23.5629 59.2788 22.922 59.9226C22.2811 60.5663 21.4118 60.928 20.5054 60.928Z" fill="white"/>
<path d="M37.5933 53.205C36.6869 53.205 35.8177 52.8434 35.1768 52.1996C34.5358 51.5559 34.1758 50.6828 34.1758 49.7725V18.8793C34.1758 17.969 34.5358 17.0959 35.1768 16.4522C35.8177 15.8084 36.6869 15.4468 37.5933 15.4468C38.4997 15.4468 39.369 15.8084 40.0099 16.4522C40.6508 17.0959 41.0109 17.969 41.0109 18.8793V49.7725C41.0109 50.6828 40.6508 51.5559 40.0099 52.1996C39.369 52.8434 38.4997 53.205 37.5933 53.205Z" fill="white"/>
<path d="M3.41754 45.4816C2.51115 45.4816 1.64189 45.12 1.00097 44.4762C0.360062 43.8325 0 42.9594 0 42.049V26.6025C0 25.6921 0.360062 24.819 1.00097 24.1753C1.64189 23.5316 2.51115 23.1699 3.41754 23.1699C4.32393 23.1699 5.19319 23.5316 5.8341 24.1753C6.47501 24.819 6.83508 25.6921 6.83508 26.6025V42.049C6.83508 42.9594 6.47501 43.8325 5.8341 44.4762C5.19319 45.12 4.32393 45.4816 3.41754 45.4816Z" fill="white"/>
<path d="M71.7681 57.0836C70.8617 57.0836 69.9925 56.7219 69.3516 56.0782C68.7106 55.4345 68.3506 54.5614 68.3506 53.651V15.0346C68.3506 14.1242 68.7106 13.2512 69.3516 12.6074C69.9925 11.9637 70.8617 11.6021 71.7681 11.6021C72.6745 11.6021 73.5438 11.9637 74.1847 12.6074C74.8256 13.2512 75.1857 14.1242 75.1857 15.0346V53.651C75.1857 54.5614 74.8256 55.4345 74.1847 56.0782C73.5438 56.7219 72.6745 57.0836 71.7681 57.0836Z" fill="white"/>
</svg>
