<svg width="63" height="70" viewBox="0 0 63 70" fill="none" xmlns="http://www.w3.org/2000/svg">
<g clip-path="url(#clip0_5051_1831)">
<path d="M62.8243 13.0489C62.7937 12.6411 62.4804 12.318 62.0754 12.2795C56.4975 11.764 51.8824 6.9014 51.0953 0.723117C51.0418 0.307641 50.6904 -0.0078125 50.2777 -0.0078125H12.7299C12.3173 -0.0078125 11.9658 0.299947 11.9123 0.715423C11.1253 6.8937 6.51013 11.7563 0.932201 12.2718C0.53487 12.3103 0.213948 12.6334 0.183384 13.0335C0.061128 14.5877 0 16.2034 0 17.8269C0 29.1447 3.01055 40.0625 8.69545 49.403C14.2581 58.5358 22.0213 65.622 31.1523 69.9076C31.2593 69.9614 31.3816 69.9845 31.5038 69.9845C31.6261 69.9845 31.7407 69.9614 31.8553 69.9076C40.9787 65.622 48.7495 58.5358 54.3046 49.403C59.9971 40.0625 63 29.1371 63 17.8269C63 16.2188 62.9389 14.6108 62.8243 13.0335V13.0489ZM31.5038 68.2456C13.3565 59.5591 1.65045 39.8163 1.65045 17.8423C1.65045 16.4958 1.6963 15.1571 1.78035 13.8568C4.63044 13.4259 7.32007 12.0025 9.4137 9.80204C11.4921 7.61694 12.9056 4.74708 13.4405 1.66179H49.5671C50.102 4.74708 51.5156 7.61694 53.5939 9.80204C55.6876 12.0025 58.3772 13.4259 61.2273 13.8568C61.3113 15.1724 61.3572 16.5112 61.3572 17.8423C61.3572 39.8163 49.6588 59.5591 31.5115 68.2456H31.5038Z" fill="black"/>
<path d="M58.8055 15.3032C53.8082 13.772 49.8426 9.62498 48.1845 4.20071C48.0775 3.85448 47.7566 3.61597 47.3974 3.61597H15.6109C15.2441 3.61597 14.9309 3.85448 14.8239 4.20071C13.1658 9.62498 9.20012 13.772 4.2029 15.3032C3.8667 15.4032 3.62983 15.7186 3.61455 16.0725C3.59927 16.6342 3.58398 17.2113 3.58398 17.8422C3.58398 27.6905 6.05967 37.3618 10.7436 45.7945C15.6262 54.5887 22.6712 61.5364 31.1221 65.8912C31.2367 65.9527 31.3666 65.9835 31.4965 65.9835C31.6264 65.9835 31.7563 65.9527 31.8709 65.8912C40.3219 61.5364 47.3669 54.5887 52.2495 45.7945C56.9334 37.3618 59.4091 27.6905 59.4091 17.8422C59.4091 17.2574 59.4015 16.665 59.3862 16.0725C59.3785 15.7109 59.1417 15.4032 58.7978 15.2955L58.8055 15.3032ZM31.5042 64.2139C15.5345 55.789 5.24208 37.6311 5.24208 17.8422C5.24208 17.4421 5.24208 17.0728 5.24972 16.7112C10.3157 14.9492 14.3578 10.7406 16.2069 5.27787H46.7938C48.6429 10.7406 52.685 14.9492 57.751 16.7112C57.751 17.0882 57.7586 17.4729 57.7586 17.8422C57.7586 37.6388 47.4662 55.789 31.4965 64.2139H31.5042Z" fill="black"/>
<path d="M43.431 29.4755C43.4998 28.5599 43.4769 27.5058 43.4539 26.4825C43.4463 26.0055 43.431 25.5592 43.431 25.1438C43.431 23.2434 41.9028 21.7046 40.0155 21.7046C39.3049 21.7046 38.6401 21.9277 38.0976 22.297C37.6468 20.9275 36.3631 19.9426 34.8578 19.9426C33.3525 19.9426 32.0689 20.9275 31.618 22.297C31.0679 21.92 30.4108 21.7046 29.7001 21.7046C28.1414 21.7046 26.8195 22.7586 26.4145 24.2051C25.8797 23.8512 25.2302 23.6357 24.5425 23.6357C22.6552 23.6357 21.127 25.1822 21.127 27.075V36.4847C21.127 39.093 22.1279 41.3396 24.0382 43.0169V49.7107C24.0382 50.1723 24.4126 50.5494 24.871 50.5494H39.6946C40.153 50.5494 40.5274 50.1723 40.5274 49.7107V43.0169C40.6421 42.9169 40.7567 42.8092 40.8636 42.7092C40.9095 42.663 40.9477 42.6245 40.9935 42.5784C41.0547 42.5168 41.1158 42.4553 41.1769 42.386C41.2304 42.3322 41.2763 42.2706 41.3297 42.2168C41.3756 42.1629 41.4214 42.109 41.4673 42.0552C41.5208 41.9936 41.5743 41.9244 41.6277 41.8551C41.6659 41.809 41.7042 41.7628 41.7424 41.7089C41.7958 41.6397 41.8493 41.5628 41.9028 41.4935C41.9334 41.4474 41.9639 41.4012 41.9945 41.355C42.048 41.2781 42.0938 41.2011 42.1473 41.1242C42.1779 41.078 42.2008 41.0396 42.2314 40.9934C42.2772 40.9165 42.3231 40.8318 42.3689 40.7472C42.3918 40.701 42.4148 40.6626 42.4377 40.6164C42.4835 40.5318 42.5217 40.4471 42.5676 40.3625C42.5905 40.3163 42.6134 40.2702 42.6287 40.2317C42.6669 40.1471 42.7051 40.0624 42.7433 39.9778C42.7663 39.9316 42.7815 39.8855 42.8045 39.8393C42.8427 39.7547 42.8732 39.67 42.9038 39.5777C42.9191 39.5239 42.942 39.4777 42.9573 39.4238C42.9878 39.3392 43.0184 39.2546 43.0413 39.1699C43.0566 39.1161 43.0719 39.0545 43.0872 39.0007C43.1101 38.916 43.133 38.8314 43.1559 38.7468C43.1712 38.6852 43.1865 38.6237 43.2018 38.5621C43.2171 38.4852 43.24 38.4005 43.2553 38.3236C43.2706 38.2543 43.2782 38.1774 43.2935 38.1082C43.3088 38.0312 43.324 37.962 43.3317 37.885C43.347 37.8004 43.3546 37.7158 43.3622 37.6311C43.3699 37.5696 43.3775 37.5003 43.3852 37.4388C43.4005 37.2926 43.4081 37.1387 43.4157 36.9925C43.4234 36.8233 43.431 36.6617 43.431 36.4924V33.3225C43.431 33.3225 43.431 33.2609 43.431 33.2302V29.6986C43.431 29.6294 43.431 29.5601 43.431 29.4909V29.4755Z" fill="black"/>
<path d="M30.7012 12.6873V8.64796C30.7012 8.20171 31.0603 7.84009 31.5035 7.84009C31.9467 7.84009 32.3058 8.20171 32.3058 8.64796V12.6873C32.3058 13.1336 31.9467 13.4952 31.5035 13.4952C31.0603 13.4952 30.7012 13.1336 30.7012 12.6873Z" fill="black"/>
<path d="M22.6247 15.4186L20.6228 11.9178C20.4012 11.5331 20.5311 11.0407 20.9131 10.8176C21.2952 10.5945 21.7842 10.7253 22.0058 11.11L24.0077 14.6107C24.2293 14.9954 24.0994 15.4879 23.7174 15.711C23.5951 15.7879 23.4576 15.8187 23.32 15.8187C23.045 15.8187 22.7775 15.6725 22.6247 15.4186Z" fill="black"/>
<path d="M13.2263 18.7272C13.4479 18.3425 13.9369 18.2117 14.3189 18.4348L17.788 20.4506C18.17 20.6737 18.2999 21.1662 18.0783 21.5509C17.9331 21.8125 17.6657 21.9509 17.383 21.9509C17.2454 21.9509 17.1079 21.9125 16.9856 21.8432L13.5166 19.8274C13.1346 19.6043 13.0047 19.1119 13.2263 18.7272Z" fill="black"/>
<path d="M15.2972 30.2527H11.2857C10.8425 30.2527 10.4834 29.8911 10.4834 29.4448C10.4834 28.9986 10.8425 28.637 11.2857 28.637H15.2972C15.7404 28.637 16.0995 28.9986 16.0995 29.4448C16.0995 29.8911 15.7404 30.2527 15.2972 30.2527Z" fill="black"/>
<path d="M18.2998 37.2772C18.5214 37.6619 18.3915 38.1543 18.0095 38.3775L14.5328 40.3933C14.4106 40.4702 14.273 40.501 14.1355 40.501C13.8604 40.501 13.593 40.3548 13.4401 40.1009C13.2186 39.7162 13.3485 39.2238 13.7305 39.0007L17.2072 36.9848C17.5892 36.7617 18.0782 36.8925 18.2998 37.2772Z" fill="black"/>
<path d="M42.3769 11.9178L40.3749 15.4186C40.2297 15.6802 39.9547 15.8187 39.6796 15.8187C39.5421 15.8187 39.4045 15.7802 39.2823 15.711C38.9002 15.4879 38.7703 14.9954 38.9919 14.6107L40.9938 11.11C41.2154 10.7253 41.7045 10.5945 42.0865 10.8176C42.4686 11.0407 42.5985 11.5331 42.3769 11.9178Z" fill="black"/>
<path d="M44.9216 21.5509C44.7 21.1662 44.8299 20.6737 45.2119 20.4506L48.6886 18.4348C49.0707 18.2117 49.5597 18.3425 49.7813 18.7272C50.0029 19.1119 49.873 19.6043 49.4909 19.8274L46.0143 21.8432C45.892 21.9202 45.7545 21.9509 45.6169 21.9509C45.3418 21.9509 45.0744 21.8048 44.9216 21.5509Z" fill="black"/>
<path d="M52.5087 29.4448C52.5087 29.8911 52.1496 30.2527 51.7064 30.2527H47.6949C47.2517 30.2527 46.8926 29.8911 46.8926 29.4448C46.8926 28.9986 47.2517 28.637 47.6949 28.637H51.7064C52.1496 28.637 52.5087 28.9986 52.5087 29.4448Z" fill="black"/>
<path d="M49.5596 40.1009C49.4144 40.3625 49.1393 40.501 48.8643 40.501C48.7267 40.501 48.5892 40.4625 48.4669 40.3933L44.9903 38.3775C44.6082 38.1543 44.4783 37.6619 44.6999 37.2772C44.9215 36.8925 45.4105 36.7617 45.7926 36.9848L49.2692 39.0007C49.6513 39.2238 49.7812 39.7162 49.5596 40.1009Z" fill="black"/>
</g>
<defs>
<clipPath id="clip0_5051_1831">
<rect width="63" height="70" fill="white"/>
</clipPath>
</defs>
</svg>
