<svg width="80" height="90" viewBox="0 0 80 90" fill="none" xmlns="http://www.w3.org/2000/svg">
<g clip-path="url(#clip0_5050_1790)">
<path d="M74.3 57.74V32.26C77.37 31.71 79.71 29.02 79.71 25.79C79.71 22.17 76.76 19.22 73.14 19.22C71.13 19.22 69.33 20.13 68.12 21.55L46.05 8.80001C46.3 8.11001 46.44 7.36001 46.44 6.58001C46.44 2.96001 43.49 0.0100098 39.86 0.0100098C36.23 0.0100098 33.29 2.96001 33.29 6.58001C33.29 7.36001 33.43 8.11001 33.68 8.80001L11.61 21.54C10.4 20.12 8.60002 19.21 6.59002 19.21C2.97002 19.21 0.0200195 22.16 0.0200195 25.78C0.0200195 29.01 2.36002 31.7 5.43002 32.25V57.74C2.36002 58.29 0.0200195 60.98 0.0200195 64.21C0.0200195 67.83 2.97002 70.78 6.59002 70.78C8.60002 70.78 10.4 69.88 11.61 68.45L33.68 81.19C33.42 81.9 33.29 82.65 33.29 83.41C33.29 87.04 36.24 89.99 39.86 89.99C43.48 89.99 46.43 87.04 46.43 83.42C46.43 82.64 46.29 81.89 46.04 81.2L68.11 68.46C69.35 69.92 71.18 70.79 73.13 70.79C76.75 70.79 79.7 67.84 79.7 64.22C79.7 60.99 77.36 58.3 74.29 57.75L74.3 57.74ZM73.13 21.55C75.47 21.55 77.37 23.45 77.37 25.79C77.37 28.13 75.47 30.03 73.13 30.03C70.79 30.03 68.89 28.13 68.89 25.79C68.89 23.45 70.79 21.55 73.13 21.55ZM39.85 2.34001C42.19 2.34001 44.09 4.24001 44.09 6.58001C44.09 8.92001 42.19 10.82 39.85 10.82C37.51 10.82 35.61 8.92001 35.61 6.58001C35.61 4.24001 37.51 2.34001 39.85 2.34001ZM2.34002 25.79C2.34002 23.45 4.24002 21.55 6.58002 21.55C8.92002 21.55 10.82 23.45 10.82 25.79C10.82 28.13 8.92002 30.03 6.58002 30.03C4.24002 30.03 2.34002 28.13 2.34002 25.79ZM6.57002 68.45C4.23002 68.45 2.33002 66.55 2.33002 64.21C2.33002 61.87 4.23002 59.97 6.57002 59.97C8.91002 59.97 10.81 61.87 10.81 64.21C10.81 66.55 8.91002 68.45 6.57002 68.45ZM39.85 87.66C37.51 87.66 35.61 85.76 35.61 83.42C35.61 82.67 35.81 81.94 36.17 81.31V81.28C36.94 79.98 38.35 79.18 39.84 79.18C42.18 79.18 44.08 81.08 44.08 83.42C44.08 85.76 42.18 87.66 39.84 87.66H39.85ZM66.55 64.21C66.55 64.97 66.68 65.72 66.94 66.43L44.87 79.17C43.66 77.75 41.86 76.84 39.85 76.84C37.84 76.84 36.07 77.71 34.83 79.17L12.76 66.43C13.01 65.74 13.15 64.99 13.15 64.21C13.15 60.98 10.81 58.29 7.74002 57.74V32.25C10.81 31.7 13.15 29.01 13.15 25.78C13.15 25 13.01 24.25 12.76 23.56L34.83 10.82C36.04 12.24 37.84 13.15 39.85 13.15C41.86 13.15 43.66 12.25 44.87 10.82L66.94 23.56C66.69 24.25 66.55 25 66.55 25.78C66.55 29.01 68.89 31.7 71.96 32.25V57.74C68.89 58.29 66.55 60.98 66.55 64.21ZM73.13 68.45C71.63 68.45 70.23 67.64 69.47 66.34C69.1 65.69 68.9 64.95 68.9 64.21C68.9 61.87 70.8 59.97 73.14 59.97C75.48 59.97 77.38 61.87 77.38 64.21C77.38 66.55 75.48 68.45 73.14 68.45H73.13Z" fill="black"/>
<path d="M39.8499 22.71L22.1499 29.48V49.95C24.5499 58.26 30.3499 63.93 39.8499 67.29C49.3499 63.93 55.1499 58.26 57.5399 49.95V29.48L39.8499 22.71ZM39.8499 55.53C34.0399 55.53 29.3099 50.8 29.3099 44.99C29.3099 39.18 34.0399 34.45 39.8499 34.45C45.6599 34.45 50.3899 39.18 50.3899 44.99C50.3899 50.8 45.6599 55.53 39.8499 55.53Z" fill="black"/>
<path d="M46.4198 39.5801C45.7698 39.0101 44.7698 39.0801 44.1998 39.7301L37.5498 47.3301L34.9998 44.5001C34.4198 43.8601 33.4298 43.8001 32.7798 44.3801C32.1398 44.9601 32.0798 45.9501 32.6598 46.6001L36.3898 50.7501C36.6898 51.0801 37.1098 51.2701 37.5598 51.2701H37.5698C38.0198 51.2701 38.4498 51.0701 38.7398 50.7301L46.5498 41.8001C47.1198 41.1501 47.0498 40.1501 46.3998 39.5801H46.4198Z" fill="black"/>
</g>
<defs>
<clipPath id="clip0_5050_1790">
<rect width="79.7" height="90" fill="white"/>
</clipPath>
</defs>
</svg>
