<svg width="178" height="32" viewBox="0 0 178 32" fill="none" xmlns="http://www.w3.org/2000/svg">
<g clip-path="url(#clip0_5068_4041)">
<path d="M178 29.6426C177.343 29.3174 176.511 29.149 176.058 28.6415C169.858 21.6916 163.711 14.6956 157.548 7.7134C157.162 7.27745 156.753 6.85995 156.016 6.07107V29.6149H153.695V0C154.594 0 155.496 0 156.395 0C162.683 7.00988 168.97 14.0198 175.258 21.0296C175.385 20.9535 175.513 20.8797 175.637 20.8036V0H178V29.6426Z" fill="black"/>
<path d="M14.9467 32C12.457 30.8974 9.77083 30.0993 7.51925 28.6346C1.97813 25.027 -0.523115 19.7702 0.0894828 13.1271C0.228184 11.6216 1.07195 10.8681 2.62078 10.8666C3.27961 10.8666 3.94075 10.8666 4.62733 10.8666C3.10624 19.3827 6.9159 28.1087 12.5171 28.9345V4.17963C9.97195 4.17963 7.44759 4.032 4.95096 4.22576C2.96753 4.38031 1.76314 3.69293 1.03496 1.92604C0.766807 1.26634 0.410807 0.641246 0.0917945 0H16.9717C16.9324 0.442875 16.8585 0.885749 16.8562 1.32862C16.8446 11.0557 16.84 20.7828 16.8423 30.5099C16.8423 31.0081 16.9255 31.5041 16.9717 32.0023H14.9467V32Z" fill="black"/>
<path d="M35.54 0C34.8603 1.15563 34.2616 2.37122 33.4571 3.43228C33.1335 3.85901 32.3591 4.13119 31.7812 4.14503C28.9239 4.21654 26.0644 4.17732 23.0522 4.17732C23.0522 12.5227 23.0522 20.7182 23.0522 28.916C28.4731 28.2217 32.2574 19.6456 30.8912 10.8758C32.0193 10.8758 33.1381 10.7651 34.2154 10.9335C34.6107 10.9957 35.1262 11.6762 35.2071 12.1421C36.3791 18.9006 34.005 24.3627 28.5124 28.2356C26.1037 29.9333 23.0869 30.7706 20.3452 32H18.6577V0C24.2867 0 29.9133 0 35.54 0Z" fill="black"/>
<path d="M134.79 0C138.789 8.64759 142.788 17.2952 146.783 25.9428C147.317 27.0984 147.832 28.2609 148.48 29.698C146.88 29.698 145.546 29.781 144.238 29.6472C143.838 29.6057 143.369 29.0337 143.156 28.5954C142.009 26.2242 140.895 23.8345 139.85 21.4171C139.397 20.3676 138.824 19.8855 137.589 19.9224C134.388 20.0193 131.181 19.987 127.977 19.9363C126.99 19.9201 126.452 20.2615 126.052 21.1657C125.032 23.4724 123.93 25.7444 122.841 28.0187C121.944 29.8917 121.9 29.8987 119.597 29.5088C121.315 25.8828 123.012 22.296 124.718 18.7138C127.536 12.7926 130.363 6.87609 133.176 0.952642C133.315 0.659699 133.354 0.320623 133.44 0.00230664C133.891 0.00230664 134.339 0.00230664 134.79 0.00230664V0ZM138.239 18.1417C136.531 14.3196 134.871 10.6082 133.047 6.52548C131.093 10.629 129.35 14.2896 127.517 18.1417H138.241H138.239Z" fill="black"/>
<path d="M119.935 0C119.85 0.712751 119.762 1.42781 119.651 2.35277H110.129V29.4835H105.196C105.196 28.8445 105.196 28.194 105.196 27.5436C105.196 19.8094 105.161 12.0753 105.226 4.3434C105.237 2.86946 104.932 2.24897 103.298 2.34585C100.787 2.49348 98.263 2.38506 95.5098 2.38506C95.5537 1.50393 95.593 0.751964 95.6323 0.00230664C103.735 0.00230664 111.837 0.00230664 119.937 0.00230664L119.935 0Z" fill="black"/>
<path d="M76.3875 0V2.362H66.7154V29.4973H61.8423V2.44734H52.0801V0H76.3852H76.3875Z" fill="black"/>
<path d="M88.5399 0C88.5006 2.06906 88.4289 4.13811 88.4243 6.20717C88.4104 13.3255 88.4197 20.4437 88.4197 27.562V29.4881H83.4773V0C85.1648 0 86.8524 0 88.5399 0Z" fill="black"/>
</g>
<defs>
<clipPath id="clip0_5068_4041">
<rect width="178" height="32" fill="white"/>
</clipPath>
</defs>
</svg>
